<svg xmlns="http://www.w3.org/2000/svg" version="1.1" xmlns:xlink="http://www.w3.org/1999/xlink" width="512" height="512" x="0" y="0" viewBox="0 0 512 512" style="enable-background:new 0 0 512 512" xml:space="preserve" class=""><g><path fill-rule="evenodd" d="M110.043 464.03a3.122 3.122 0 0 0-3.144 3.153l.024 25.685a3.163 3.163 0 0 0 3.149 3.139l104.463.006a3.1 3.1 0 0 0 3.145-3.158l-.025-25.679a3.163 3.163 0 0 0-3.148-3.139zm291.914 0a3.122 3.122 0 0 1 3.144 3.153l-.024 25.685a3.163 3.163 0 0 1-3.149 3.139l-104.463.006a3.1 3.1 0 0 1-3.145-3.158l.025-25.679a3.163 3.163 0 0 1 3.148-3.139zm32.364-140.742 24.513-57.861c6.811-16.079 14.007-23.159 20.29-24.649 4.637-1.1 8.761 1.275 11.685 4.747 4.45 5.286 6.567 13.3 4.309 20.153L463.069 363c-4.38 13.444-9.9 30.391-20.427 37.624l-42.35 29.106a34.793 34.793 0 0 0-14.4 20.352h-69.493c3.435-13.751 6.841-27.515 10.091-41.311 2.9-12.3 5.527-22.094 11.249-29.462 5.67-7.3 14.864-12.917 31.214-17.405a6.948 6.948 0 0 0 2.241-1.067l37.606-27.005a14.017 14.017 0 0 1 16.344 22.776l-49.979 35.9a6.974 6.974 0 0 0 8.148 11.32l49.98-35.9a28.01 28.01 0 0 0 6.4-39.014 27.7 27.7 0 0 0-5.368-5.626zM285.542 44.8h-59.084a299.752 299.752 0 0 1-73.449 33.98v92.978c0 53.494 56.916 105.4 102.991 124.284 46.075-18.888 102.991-70.79 102.991-124.284V78.783A299.769 299.769 0 0 1 285.542 44.8zm35.931 105.138-87.819 64.1c-7.175 5.236-17.108 4.371-21.8-3.259l-25.094-40.84a14.4 14.4 0 0 1 24.54-15.084l16.962 27.606 76.325-55.707a14.343 14.343 0 0 1 16.885 23.189zm58.673-95.258c-30.737-7.394-59.839-21.127-86.049-38.693H217.9c-26.21 17.565-55.312 31.3-86.049 38.693a9.9 9.9 0 0 0-7.662 9.722v107.359c0 38.025 20.665 72.916 46.432 99.559 22.743 23.517 54.135 45.171 85.376 55.413 31.241-10.242 62.633-31.9 85.376-55.413 25.767-26.642 46.432-61.535 46.432-99.559V64.4a9.9 9.9 0 0 0-7.659-9.72zm-7.154 117.081c0 60.286-61.9 117.913-114.476 138.3a6.959 6.959 0 0 1-5.032 0c-52.58-20.391-114.476-78.016-114.476-138.3V73.549a7 7 0 0 1 5.141-6.727c27.02-7.549 52.549-19.566 76.155-34.663a6.968 6.968 0 0 1 4.141-1.356h63.111a6.969 6.969 0 0 1 3.773 1.121c23.56 15.112 49.038 27.158 76.013 34.755a7 7 0 0 1 5.65 6.87zM77.679 323.288a27.7 27.7 0 0 0-5.368 5.626 28.01 28.01 0 0 0 6.4 39.014l49.98 35.9a6.974 6.974 0 0 0 8.148-11.32l-49.979-35.9a14.017 14.017 0 1 1 16.34-22.776l37.608 27.013a6.948 6.948 0 0 0 2.241 1.067c16.35 4.488 25.544 10.1 31.214 17.405 5.722 7.368 8.353 17.161 11.249 29.462 3.25 13.8 6.656 27.56 10.091 41.311H126.11a34.793 34.793 0 0 0-14.4-20.352l-42.35-29.106C58.833 393.4 53.311 376.448 48.931 363l-32.049-97.322c-2.258-6.854-.141-14.867 4.309-20.153 2.924-3.472 7.048-5.846 11.685-4.747 6.283 1.49 13.479 8.57 20.29 24.649z" fill="#000000" opacity="1" data-original="#000000" class=""></path></g></svg>