<svg xmlns="http://www.w3.org/2000/svg" version="1.1" xmlns:xlink="http://www.w3.org/1999/xlink" width="512" height="512" x="0" y="0" viewBox="0 0 66 66" style="enable-background:new 0 0 512 512" xml:space="preserve" class=""><g><path d="M17.12 25.53h-1.78a.48.48 0 0 0 0 .96h1.78c.27 0 .48-.22.48-.48a.468.468 0 0 0-.48-.48zM13.55 25.53H7.2a.48.48 0 0 0 0 .96h6.35c.27 0 .48-.22.48-.48 0-.27-.21-.48-.48-.48zM10.87 28.21H7.2a.48.48 0 0 0 0 .96h3.67a.48.48 0 0 0 0-.96zM64.02 63.53h-.27a.48.48 0 0 0 0 .96h.27c.27 0 .48-.22.48-.48s-.22-.48-.48-.48zM2.13 63.53h-.15a.48.48 0 0 0 0 .96h.14c.27 0 .48-.22.48-.48a.472.472 0 0 0-.47-.48zM53.76 9.29c.12 0 .25-.05.34-.14L56.26 7a.489.489 0 0 0-.69-.69l-2.15 2.15c-.19.19-.19.5 0 .69.1.09.22.14.34.14zM55.04 10.56c0 .27.22.48.48.48h3.04c.27 0 .48-.22.48-.48s-.22-.48-.48-.48h-3.04c-.26 0-.48.22-.48.48zM52.01 7.53c.27 0 .48-.22.48-.48V4.01c0-.27-.22-.48-.48-.48s-.48.22-.48.48v3.04c-.01.26.21.48.48.48zM57.39 5.66c.12 0 .25-.05.34-.14l.5-.5a.489.489 0 0 0-.69-.69l-.5.5c-.19.19-.19.5 0 .69.1.1.23.14.35.14zM34.48 39.31a.489.489 0 0 0-.69 0l-.99.99-.27-.27a.489.489 0 0 0-.69.69l.61.61c.09.09.22.14.34.14s.25-.05.34-.14L34.46 40c.21-.19.21-.5.02-.69zM31.67 14.95h1.92c.27 0 .48-.22.48-.48s-.22-.48-.48-.48h-1.92a.48.48 0 0 0 0 .96zM17.38 14.95H29.6c.27 0 .48-.22.48-.48s-.22-.48-.48-.48H17.38a.48.48 0 0 0 0 .96zM56.71 58.07h-2.57a.48.48 0 0 0 0 .96h2.57c.27 0 .48-.22.48-.48a.474.474 0 0 0-.48-.48zM58.85 59.04h.81a.48.48 0 0 0 0-.96h-.81a.48.48 0 0 0 0 .96z" fill="#000000" opacity="1" data-original="#000000" class=""></path><path d="M60.86 32.33h-7.98V11.67a.48.48 0 0 0-.48-.48h-6.26V8.23a.48.48 0 0 0-.48-.48H42.2a.48.48 0 0 0-.48.48v2.95H13.19V8.23a.48.48 0 0 0-.48-.48H9.26a.48.48 0 0 0-.48.48v2.95H2.52a.48.48 0 0 0-.48.48V47.3c0 .01.01.02.01.03 0 .04.01.09.03.13.01.02.01.03.02.05.02.05.05.1.09.14l.94.94v12.43a.476.476 0 0 0 .48.48h.59v2.04h-.6a.48.48 0 0 0 0 .96h58.68c.27 0 .48-.22.48-.48 0-.19-.12-.36-.28-.44.17-.29.28-.62.28-.98v-4.91a1.9 1.9 0 0 0-1.9-1.9h-3.25c.58-4.9.58-9.85 0-14.75h3.25a1.9 1.9 0 0 0 1.9-1.9v-4.91c0-1.05-.86-1.9-1.9-1.9zm-12.66 0a1.9 1.9 0 0 0-1.9 1.9v4.91c0 1.05.85 1.9 1.9 1.9h3.25c-.58 4.9-.58 9.85 0 14.75H48.2c-1.03 0-1.87.83-1.9 1.86H13.84v-5.31a.47.47 0 0 0 .08-.26v-4.31h4.64v4.31c0 .27.22.48.48.48s.48-.22.48-.48v-4.31h4.64v4.31c0 .27.22.48.48.48s.48-.22.48-.48v-4.31h4.64v4.31c0 .27.22.48.48.48s.48-.22.48-.48v-4.31h4.64v4.31c0 .27.22.48.48.48s.48-.22.48-.48v-4.31h4.64v4.31c0 .27.22.48.48.48s.48-.22.48-.48v-4.31H45a.48.48 0 0 0 0-.96h-3.04V43.1H45a.48.48 0 0 0 0-.96h-3.04v-3.87H45a.48.48 0 0 0 0-.96h-3.04v-3.87H45c.27 0 .48-.22.48-.48s-.22-.48-.48-.48h-3.04v-2.97c0-.27-.22-.48-.48-.48s-.48.22-.48.48v2.97h-4.64v-2.97c0-.27-.22-.48-.48-.48s-.48.22-.48.48v2.97h-4.64v-2.97c0-.27-.22-.48-.48-.48s-.48.22-.48.48v2.97h-4.64v-2.97c0-.27-.22-.48-.48-.48s-.48.22-.48.48v2.97h-4.64v-2.97c0-.27-.22-.48-.48-.48s-.48.22-.48.48v2.97h-4.64v-2.97c0-.27-.22-.48-.48-.48s-.48.22-.48.48v2.97H9.91c-.27 0-.48.22-.48.48s.22.48.48.48h3.04v3.87H9.91a.48.48 0 0 0 0 .96h3.04v3.87H9.91a.48.48 0 0 0 0 .96h3.04v3.71H3V22.34h48.91v9.99zM12.87 56.97l-9.18-9.18h9.18v8.83zm16.9-14.84h-4.64v-3.87h4.64zm.97-3.87h4.64v3.87h-4.64zm-6.57 3.87h-4.64v-3.87h4.64zm0 .97v3.71h-4.64V43.1zm.97 0h4.64v3.71h-4.64zm5.6 0h4.64v3.71h-4.64zm5.61 0h4.64v3.71h-4.64zm0-.97v-3.87h4.64v3.87zm0-4.84v-3.87h4.64v3.87zm-.97 0h-4.64v-3.87h4.64zm-5.61 0h-4.64v-3.87h4.64zm-5.6 0h-4.64v-3.87h4.64zm-5.61 0h-4.64v-3.87h4.64zm0 .97v3.87h-4.64v-3.87zm0 4.84v3.71h-4.64V43.1zM42.69 8.72h2.48v8.35h-2.48zm-32.94 0h2.48v8.35H9.75zm2.96 9.32c.27 0 .48-.22.48-.48v-5.4h28.53v5.4c0 .27.22.48.48.48h3.45c.27 0 .48-.22.48-.48v-5.4h5.77v9.22H3v-9.22H8.78v5.4c0 .27.22.48.48.48zM4.08 49.55l8.93 8.93c.04.04.1.08.16.1s.12.04.19.04H46.3v1.9H4.08zm1.08 11.94H46.3v1.11c0 .34.1.65.25.93H5.16zm56.63-3.8v4.91c0 .51-.42.93-.93.93H48.2c-.51 0-.93-.42-.93-.93v-4.91c0-.51.42-.93.93-.93h12.66c.51 0 .93.42.93.93zm-5.15-1.9h-4.22c-.59-4.9-.59-9.85 0-14.75h4.22c.59 4.9.59 9.85 0 14.75zm5.15-16.65c0 .51-.42.93-.93.93H48.2c-.51 0-.93-.42-.93-.93v-4.91c0-.51.42-.93.93-.93h12.66c.51 0 .93.42.93.93z" fill="#000000" opacity="1" data-original="#000000" class=""></path></g></svg>