<svg xmlns="http://www.w3.org/2000/svg" version="1.1" xmlns:xlink="http://www.w3.org/1999/xlink" width="512" height="512" x="0" y="0" viewBox="0 0 512 512" style="enable-background:new 0 0 512 512" xml:space="preserve"><g><g fill="#222221"><path d="M256 422a94.512 94.512 0 0 0-33.912 6.262L256 487l33.912-58.738A94.512 94.512 0 0 0 256 422zM315.871 443.3 276.207 512h74.662c-1.443-27.676-14.787-52.251-34.998-68.7zM161.131 512h74.662l-39.664-68.7c-20.211 16.449-33.555 41.024-34.998 68.7zM214.144 399.217l-29.532-34.455a15.002 15.002 0 0 1-3.611-9.762v-15h-45c-52.383 0-95 42.617-95 95v62c0 8.284 6.716 15 15 15h75.109c2.058-52.079 36.128-96.064 83.034-112.783zM376 340h-45v15c0 3.581-1.281 7.043-3.611 9.762l-29.532 34.455c46.906 16.719 80.975 60.704 83.035 112.783H456c8.284 0 15-6.716 15-15v-62c0-52.383-42.617-95-95-95zM256 200c42.597 0 82.134-21.16 105.763-56.603l2.265-3.397H147.972l2.265 3.398C173.866 178.84 213.403 200 256 200zM124.791 110H387.21l3.277-4.096c7.619-9.524 11.018-21.43 9.568-33.524-1.442-12.044-7.521-22.757-17.115-30.166C358.003 22.956 315.738 0 256 0S153.997 22.956 129.062 42.213c-9.595 7.409-15.674 18.123-17.116 30.167-1.449 12.094 1.949 24 9.568 33.524zM226 55h60c8.284 0 15 6.716 15 15s-6.716 15-15 15h-60c-8.284 0-15-6.716-15-15s6.716-15 15-15zM211 342.843v6.609l36.711 42.83c2.741-.18 5.503-.281 8.289-.281s5.548.101 8.289.281L301 349.451v-6.609c-14.173 4.638-29.297 7.157-45 7.157s-30.827-2.518-45-7.156z" fill="#222221" opacity="1" data-original="#222221"></path><path d="M371 205v-35.061C341.538 201.643 300.099 220 256 220c-44.1 0-85.539-18.358-115-50.061V205c0 63.411 51.589 115 115 115s115-51.589 115-115zM117.916 249.259A144.477 144.477 0 0 1 111 205v-42.42c-17.459 6.192-30 22.865-30 42.42 0 22.052 15.949 40.438 36.916 44.259zM431 205c0-19.555-12.541-36.228-30-42.42V205c0 15.429-2.432 30.3-6.916 44.259C415.051 245.438 431 227.052 431 205z" fill="#222221" opacity="1" data-original="#222221"></path></g></g></svg>