<svg xmlns="http://www.w3.org/2000/svg" version="1.1" viewBox="-5.0 -10.0 110.0 135.0">
 <path d="m18.656 41.344c0-8.6562 3.5078-16.492 9.1797-22.164 5.6719-5.6719 13.508-9.1797 22.164-9.1797s16.492 3.5078 22.164 9.1797c5.6719 5.6719 9.1797 13.508 9.1797 22.164 0 7.1055-3.1289 14.824-7.6328 22.195-6.0508 9.8984-14.629 19.227-21.352 25.523-0.67188 0.625-1.5195 0.9375-2.3594 0.9375-0.84375 0-1.6914-0.3125-2.3594-0.9375-0.027344-0.023438-0.050781-0.050781-0.074219-0.074219-6.7109-6.293-15.246-15.586-21.273-25.445-4.5078-7.375-7.6367-15.094-7.6367-22.199zm31.344-17.469c-4.8242 0-9.1914 1.957-12.352 5.1172-3.1602 3.1602-5.1172 7.5273-5.1172 12.352s1.957 9.1914 5.1172 12.352c3.1602 3.1602 7.5273 5.1172 12.352 5.1172s9.1914-1.957 12.352-5.1172c3.1602-3.1602 5.1172-7.5273 5.1172-12.352s-1.957-9.1914-5.1172-12.352c-3.1602-3.1602-7.5273-5.1172-12.352-5.1172zm10.23 7.2383c-2.6172-2.6172-6.2344-4.2383-10.23-4.2383s-7.6133 1.6211-10.23 4.2383c-2.6172 2.6172-4.2383 6.2344-4.2383 10.23s1.6211 7.6133 4.2383 10.23c2.6172 2.6172 6.2344 4.2383 10.23 4.2383s7.6133-1.6211 10.23-4.2383c2.6172-2.6172 4.2383-6.2344 4.2383-10.23s-1.6211-7.6133-4.2383-10.23zm-30.273-9.8125c-5.1289 5.1289-8.3008 12.215-8.3008 20.043 0 6.5 2.9453 13.695 7.1875 20.637 5.8789 9.6133 14.207 18.684 20.762 24.828 0.027343 0.023437 0.054687 0.046875 0.082031 0.070312 0.085938 0.078125 0.19531 0.11719 0.30859 0.11719 0.11719 0 0.23047-0.039063 0.31641-0.11719 6.5664-6.1484 14.938-15.25 20.84-24.902 4.2422-6.9414 7.1875-14.137 7.1875-20.637 0-7.8281-3.1719-14.914-8.3008-20.043-5.1289-5.1289-12.215-8.3008-20.043-8.3008-7.8242 0.003906-14.91 3.1758-20.039 8.3047z" fill-rule="evenodd"/>
<text x="0.0" y="117.5" font-size="5.0" font-weight="bold" font-family="Arbeit Regular, Helvetica, Arial-Unicode, Arial, Sans-serif" fill="#000000">Created by Edy Susanto</text><text x="0.0" y="122.5" font-size="5.0" font-weight="bold" font-family="Arbeit Regular, Helvetica, Arial-Unicode, Arial, Sans-serif" fill="#000000">from Noun Project</text></svg>