<svg xmlns="http://www.w3.org/2000/svg" version="1.1" xmlns:xlink="http://www.w3.org/1999/xlink" width="512" height="512" x="0" y="0" viewBox="0 0 64 64" style="enable-background:new 0 0 512 512" xml:space="preserve" class=""><g><path d="M62 29v6a3.003 3.003 0 0 1-3 3h-4.276a23.242 23.242 0 0 1-2.413 5.818l3.027 3.036a3.005 3.005 0 0 1-.001 4.233l-4.25 4.25a3.063 3.063 0 0 1-4.234 0l-3.035-3.026A23.242 23.242 0 0 1 38 54.724V59a3.003 3.003 0 0 1-3 3h-6a3.003 3.003 0 0 1-3-3v-4.276a23.557 23.557 0 0 1-3.619-1.282 1.007 1.007 0 0 1-.299-1.618l4.25-4.26a1.001 1.001 0 0 1 .995-.252A16.275 16.275 0 0 0 32 48a16 16 0 1 0-16-16 16.252 16.252 0 0 0 .688 4.664.999.999 0 0 1-.251.993l-4.26 4.26a1.006 1.006 0 0 1-1.62-.298A23.643 23.643 0 0 1 9.276 38H5a3.003 3.003 0 0 1-3-3v-6a3.003 3.003 0 0 1 3-3h4.276a23.253 23.253 0 0 1 2.413-5.819l-3.027-3.035a3.005 3.005 0 0 1 .001-4.233l4.25-4.25a3.063 3.063 0 0 1 4.234 0l3.035 3.026A23.242 23.242 0 0 1 26 9.276V5a3.003 3.003 0 0 1 3-3h6a3.003 3.003 0 0 1 3 3v4.276a23.242 23.242 0 0 1 5.818 2.413l3.036-3.027a3.063 3.063 0 0 1 4.233.001l4.25 4.25a3.005 3.005 0 0 1 0 4.234l-3.026 3.034A23.253 23.253 0 0 1 54.724 26H59a3.003 3.003 0 0 1 3 3Zm-18.609-2.104a1.007 1.007 0 0 0-1.655-.39l-4.55 4.552-3.183-1.061-1.06-3.183 4.55-4.55a1.007 1.007 0 0 0-.389-1.655 9.985 9.985 0 0 0-12.837 12.053L3.552 53.377a5 5 0 1 0 7.071 7.07l20.715-20.714A9.985 9.985 0 0 0 43.39 26.896Z" fill="#000000" opacity="1" data-original="#000000" class=""></path></g></svg>
