<svg xmlns="http://www.w3.org/2000/svg" version="1.1" xmlns:xlink="http://www.w3.org/1999/xlink" width="512" height="512" x="0" y="0" viewBox="0 0 1000 1000" style="enable-background:new 0 0 512 512" xml:space="preserve" class=""><g><g fill="#333"><path d="M850.837 370.14c-78.78-78.77-206.96-78.78-285.74 0-64.38 64.39-77.69 164.5-32.36 243.47l62.49 108.85h-94.36c-43.88 0-79.58-35.7-79.58-79.58v-144.2c0-70.65-41.08-133.86-104.05-162.97l16.28-28.36c29.26-50.97 20.67-115.58-20.88-157.14-24.63-24.63-57.38-38.19-92.21-38.19-34.83 0-67.58 13.56-92.21 38.19-41.56 41.56-50.14 106.17-20.89 157.14l93.23 162.39c4.14 7.21 11.56 11.51 19.87 11.51 8.3 0 15.73-4.3 19.86-11.51l26.72-46.55c32.47 10.88 54.28 41.2 54.28 75.49v144.2c0 99.02 80.56 179.58 179.58 179.58h151.77l28.8 50.17c5.52 9.61 15.44 15.35 26.53 15.35 11.09 0 21-5.74 26.52-15.35l148.7-259.02c17.98-31.33 26.74-65.98 26.74-100.42 0-52.36-20.25-104.2-59.09-143.05zm-627.89 89.65c-.73 1.27-1.89 1.46-2.52 1.46-.63 0-1.79-.19-2.52-1.46l-93.23-162.4c-24.77-43.15-17.5-97.86 17.68-133.04 21.52-21.52 49.8-32.28 78.07-32.28 28.27 0 56.54 10.76 78.07 32.28 35.18 35.19 42.45 89.89 17.68 133.04zm642.9 143.86-148.7 259.02c-2.76 4.8-7.34 5.31-9.18 5.31-1.84 0-6.43-.51-9.18-5.31l-26.55-46.25-53.94-93.96-68.21-118.81c-40.85-71.15-28.86-161.36 29.15-219.37 34.39-34.38 80.1-53.32 128.73-53.32s94.34 18.94 128.72 53.33c58.01 58.01 70 148.21 29.16 219.36z" fill="#333333" opacity="1" data-original="#333333"></path><circle cx="707.967" cy="516.71" r="104.27" transform="rotate(-45 707.926 516.879)" fill="#333333" opacity="1" data-original="#333333"></circle><circle cx="220.427" cy="244.74" r="69.1" transform="rotate(-45 220.399 244.799)" fill="#333333" opacity="1" data-original="#333333"></circle></g></g></svg>