<svg xmlns="http://www.w3.org/2000/svg" version="1.1" xmlns:xlink="http://www.w3.org/1999/xlink" width="512" height="512" x="0" y="0" viewBox="0 0 512 512" style="enable-background:new 0 0 512 512" xml:space="preserve" class=""><g><path d="M497 211H15c-8.291 0-15 6.709-15 15s6.709 15 15 15h15v45c0 8.291 6.709 15 15 15s15-6.709 15-15v-45h392v45c0 8.291 6.709 15 15 15s15-6.709 15-15v-45h15c8.291 0 15-6.709 15-15s-6.709-15-15-15zM347 0h-61c-8.291 0-15 6.709-15 15v166h122.194L361.736 12.231C360.418 5.142 354.222 0 347 0z" fill="#000000" opacity="1" data-original="#000000" class=""></path><path d="M448.543 506.58a14.929 14.929 0 0 0 3.193-12.349L410.069 271H271v226c0 8.291 6.709 15 15 15h151a15.02 15.02 0 0 0 11.543-5.42zM226 512c8.291 0 15-6.709 15-15V271H101.933L60.264 494.231c-.835 4.395.337 8.921 3.193 12.349S70.532 512 75 512zM165 0c-7.222 0-13.418 5.142-14.736 12.231L118.808 181H241V15c0-8.291-6.709-15-15-15z" fill="#000000" opacity="1" data-original="#000000" class=""></path></g></svg>