<svg xmlns="http://www.w3.org/2000/svg" version="1.1" xmlns:xlink="http://www.w3.org/1999/xlink" width="512" height="512" x="0" y="0" viewBox="0 0 511 511" style="enable-background:new 0 0 512 512" xml:space="preserve" class=""><g><path d="M456.833 288h-344a7.5 7.5 0 0 0-7.5 7.5v32.588a7.5 7.5 0 0 0 15 0V303h241v120.5c0 39.977-32.523 72.5-72.5 72.5h-96c-39.977 0-72.5-32.523-72.5-72.5v-59.941a7.5 7.5 0 0 0-15 0V423.5c0 48.248 39.252 87.5 87.5 87.5h96c40.109 0 73.998-27.129 84.291-64h3.709c54.864 0 99.5-44.636 99.5-99.5v-40c0-10.752-8.747-19.5-19.5-19.5zm-80.5 39h61v20.5c0 33.36-27.14 60.5-60.5 60.5h-.5v-81zm85 20.5c0 46.593-37.907 84.5-84.5 84.5h-.914c.271-2.798.414-5.632.414-8.5v-.5h.5c41.631 0 75.5-33.869 75.5-75.5v-28a7.5 7.5 0 0 0-7.5-7.5h-68.5v-9h80.5c2.481 0 4.5 2.019 4.5 4.5v40zM209.333 247.5c0 17.369 14.131 31.5 31.5 31.5s31.5-14.131 31.5-31.5-14.131-31.5-31.5-31.5-31.5 14.131-31.5 31.5zm48 0c0 9.098-7.402 16.5-16.5 16.5s-16.5-7.402-16.5-16.5 7.402-16.5 16.5-16.5 16.5 7.402 16.5 16.5zM124.515 167.181C155.584 136.111 196.894 119 240.833 119s85.249 17.111 116.318 48.181c7.505 7.505 20.072 7.505 27.578 0 7.603-7.603 7.603-19.974 0-27.577C346.294 101.168 295.19 80 240.833 80s-105.46 21.168-143.896 59.604c-7.603 7.604-7.603 19.975 0 27.577 7.602 7.602 19.973 7.603 27.578 0zm-16.971-16.971C143.146 114.607 190.483 95 240.833 95s97.687 19.607 133.289 55.21a4.505 4.505 0 0 1 .001 6.364c-1.695 1.695-4.669 1.695-6.365 0C333.856 122.671 288.78 104 240.833 104s-93.022 18.671-126.925 52.574a4.507 4.507 0 0 1-6.365 0 4.507 4.507 0 0 1 .001-6.364z" fill="#000000" opacity="1" data-original="#000000"></path><path d="M413.721 110.612c7.473 7.473 20.105 7.473 27.578 0 7.603-7.604 7.602-19.975 0-27.577C387.752 29.489 316.559 0 240.833 0S93.915 29.489 40.369 83.035c-7.603 7.603-7.603 19.974 0 27.577 7.516 7.516 20.061 7.518 27.577 0C114.126 64.433 175.525 39 240.833 39s126.708 25.433 172.888 71.612zM57.339 100.006c-1.812 1.812-4.865 1.713-6.558-.208-1.548-1.756-1.461-4.502.194-6.157C101.688 42.929 169.115 15 240.833 15s139.145 27.929 189.858 78.642c1.814 1.814 1.717 4.913-.241 6.587-1.723 1.474-4.517 1.384-6.124-.223C375.314 50.993 310.148 24 240.833 24s-134.48 26.993-183.494 76.006zM320.029 223.757c5.238 0 10.135-2.012 13.789-5.665 7.603-7.604 7.602-19.975 0-27.577C308.98 165.678 275.958 152 240.833 152s-68.147 13.678-92.984 38.515c-7.603 7.603-7.603 19.974 0 27.577 7.505 7.505 20.072 7.505 27.577 0 17.471-17.471 40.7-27.092 65.407-27.092s47.936 9.622 65.407 27.092c3.654 3.654 8.55 5.665 13.789 5.665zM164.82 207.485a4.505 4.505 0 0 1-6.364 0 4.504 4.504 0 0 1 0-6.364C180.46 179.118 209.715 167 240.833 167s60.374 12.118 82.378 34.122c1.814 1.814 1.717 4.913-.241 6.587-1.723 1.474-4.517 1.384-6.124-.223C296.543 187.182 269.547 176 240.833 176s-55.709 11.182-76.013 31.485z" fill="#000000" opacity="1" data-original="#000000"></path></g></svg>